# xmcd
#
# Track frame offsets:
#	150
#	13196
#	25007
#	36572
#	49778
#	62284
#	73564
#	84403
#	95189
#	105293
#	124862
#	140434
#	153338
#	163175
#	175738
#
# Disc length: 2517 seconds
#
# Revision: 5
# Processed by: cddbd v1.5.2PL0 Copyright (c) Steve Scherf et al.
# Submitted via: audiograbber 1.83.01
#
DISCID=c109d30f
DTITLE=JOHNNY CASH - CB90295
DYEAR=1900
DGENRE=
TTITLE0=JOHNNY CASH - So Doggone Lonesome
TTITLE1=JOHNNY CASH - There You Go
TTITLE2=JOHNNY CASH - Hey Porter
TTITLE3=JOHNNY CASH - Home Of The Blues
TTITLE4=JOHNNY CASH - Big River
TTITLE5=JOHNNY CASH - The Ways Of A Woman In Love
TTITLE6=JOHNNY CASH - All Over Again
TTITLE7=JOHNNY CASH - What Do I Care
TTITLE8=JOHNNY CASH - I Got Stripes
TTITLE9=JOHNNY CASH - The Ballad Of Ira Hayes
TTITLE10=JOHNNY CASH - It Ain't Me Babe
TTITLE11=JOHNNY CASH - Long-legged Guitar Pickin' Man
TTITLE12=JOHNNY CASH - Rosanna's Going Wild
TTITLE13=JOHNNY CASH - Blistered 
TTITLE14=JOHNNY CASH - What Is Truth
EXTD=
EXTT0=
EXTT1=
EXTT2=
EXTT3=
EXTT4=
EXTT5=
EXTT6=
EXTT7=
EXTT8=
EXTT9=
EXTT10=
EXTT11=
EXTT12=
EXTT13=
EXTT14=
PLAYORDER=
